<svg width="14" height="18" viewBox="0 0 14 18" fill="none" xmlns="http://www.w3.org/2000/svg">
<path d="M10.4078 11.6502H13.9123C13.8419 12.7988 13.5255 13.8185 12.9629 14.7093C12.4081 15.6 11.6307 16.2954 10.6305 16.7955C9.63818 17.2956 8.44269 17.5456 7.04404 17.5456C5.95012 17.5456 4.96951 17.3581 4.10219 16.9831C3.23487 16.6002 2.49257 16.0532 1.87529 15.3422C1.26582 14.6311 0.800903 13.7716 0.480542 12.7637C0.160181 11.7557 0 10.6266 0 9.37643V8.19265C0 6.94246 0.164087 5.81339 0.492262 4.80542C0.828251 3.78964 1.30489 2.92623 1.92217 2.21518C2.54726 1.50414 3.29347 0.957177 4.16079 0.574306C5.02811 0.191435 5.99701 0 7.06748 0C8.48957 0 9.68897 0.257852 10.6657 0.773555C11.6502 1.28926 12.412 2.0003 12.9512 2.90669C13.4981 3.81308 13.8263 4.84449 13.9357 6.00091H10.4196C10.3805 5.31331 10.2437 4.73119 10.0093 4.25455C9.77492 3.77011 9.4194 3.40677 8.94277 3.16454C8.47395 2.91451 7.84885 2.78949 7.06748 2.78949C6.48145 2.78949 5.96966 2.89888 5.53209 3.11766C5.09452 3.33645 4.72728 3.66853 4.43036 4.11391C4.13344 4.55929 3.91075 5.12187 3.76229 5.80166C3.62164 6.47364 3.55132 7.26282 3.55132 8.16921V9.37643C3.55132 10.2594 3.61774 11.0368 3.75057 11.7088C3.8834 12.373 4.08656 12.9356 4.36004 13.3966C4.64133 13.8498 5.00076 14.1936 5.43833 14.428C5.88371 14.6546 6.41895 14.7679 7.04404 14.7679C7.77853 14.7679 8.38409 14.6507 8.86072 14.4163C9.33736 14.1818 9.70069 13.8341 9.95073 13.3731C10.2086 12.9121 10.361 12.3378 10.4078 11.6502Z" fill="#AC2A01"/>
</svg>
