<svg width="13" height="17" viewBox="0 0 13 17" fill="none" xmlns="http://www.w3.org/2000/svg">
<path d="M4.09282 2.10979C4.09282 1.50968 4.29911 1.00802 4.71168 0.604827C5.13363 0.201629 5.69154 3.05176e-05 6.38542 3.05176e-05C7.07929 3.05176e-05 7.63252 0.201629 8.04509 0.604827C8.46704 1.00802 8.67802 1.50968 8.67802 2.10979C8.67802 2.70989 8.46704 3.21155 8.04509 3.61474C7.63252 4.01794 7.07929 4.21954 6.38542 4.21954C5.69154 4.21954 5.13363 4.01794 4.71168 3.61474C4.29911 3.21155 4.09282 2.70989 4.09282 2.10979Z" fill="#AC2A01"/>
<path d="M4.09247 14.2469C4.09247 13.6468 4.29876 13.1452 4.71133 12.742C5.13328 12.3388 5.69119 12.1372 6.38507 12.1372C7.07894 12.1372 7.63217 12.3388 8.04474 12.742C8.46669 13.1452 8.67767 13.6468 8.67767 14.2469C8.67767 14.847 8.46669 15.3487 8.04474 15.7519C7.63217 16.1551 7.07894 16.3567 6.38507 16.3567C5.69119 16.3567 5.13328 16.1551 4.71133 15.7519C4.29876 15.3487 4.09247 14.847 4.09247 14.2469Z" fill="#AC2A01"/>
<path d="M12.7704 6.63786V9.71795H0V6.63786H12.7704Z" fill="#AC2A01"/>
</svg>
